%TF.GenerationSoftware,KiCad,Pcbnew,7.0.11+dfsg-1build4*%
%TF.CreationDate,2026-04-07T16:54:31-05:00*%
%TF.ProjectId,flight-controller,666c6967-6874-42d6-936f-6e74726f6c6c,rev?*%
%TF.SameCoordinates,Original*%
%TF.FileFunction,Legend,Top*%
%TF.FilePolarity,Positive*%
%FSLAX46Y46*%
G04 Gerber Fmt 4.6, Leading zero omitted, Abs format (unit mm)*
G04 Created by KiCad (PCBNEW 7.0.11+dfsg-1build4) date 2026-04-07 16:54:31*
%MOMM*%
%LPD*%
G01*
G04 APERTURE LIST*
%ADD10C,0.150000*%
%ADD11C,0.120000*%
G04 APERTURE END LIST*
D10*
X146833333Y-122954819D02*
X146357143Y-122954819D01*
X146357143Y-122954819D02*
X146357143Y-121954819D01*
X147690476Y-122954819D02*
X147119048Y-122954819D01*
X147404762Y-122954819D02*
X147404762Y-121954819D01*
X147404762Y-121954819D02*
X147309524Y-122097676D01*
X147309524Y-122097676D02*
X147214286Y-122192914D01*
X147214286Y-122192914D02*
X147119048Y-122240533D01*
X140073142Y-94339580D02*
X140025523Y-94387200D01*
X140025523Y-94387200D02*
X139882666Y-94434819D01*
X139882666Y-94434819D02*
X139787428Y-94434819D01*
X139787428Y-94434819D02*
X139644571Y-94387200D01*
X139644571Y-94387200D02*
X139549333Y-94291961D01*
X139549333Y-94291961D02*
X139501714Y-94196723D01*
X139501714Y-94196723D02*
X139454095Y-94006247D01*
X139454095Y-94006247D02*
X139454095Y-93863390D01*
X139454095Y-93863390D02*
X139501714Y-93672914D01*
X139501714Y-93672914D02*
X139549333Y-93577676D01*
X139549333Y-93577676D02*
X139644571Y-93482438D01*
X139644571Y-93482438D02*
X139787428Y-93434819D01*
X139787428Y-93434819D02*
X139882666Y-93434819D01*
X139882666Y-93434819D02*
X140025523Y-93482438D01*
X140025523Y-93482438D02*
X140073142Y-93530057D01*
X141025523Y-94434819D02*
X140454095Y-94434819D01*
X140739809Y-94434819D02*
X140739809Y-93434819D01*
X140739809Y-93434819D02*
X140644571Y-93577676D01*
X140644571Y-93577676D02*
X140549333Y-93672914D01*
X140549333Y-93672914D02*
X140454095Y-93720533D01*
X141977904Y-94434819D02*
X141406476Y-94434819D01*
X141692190Y-94434819D02*
X141692190Y-93434819D01*
X141692190Y-93434819D02*
X141596952Y-93577676D01*
X141596952Y-93577676D02*
X141501714Y-93672914D01*
X141501714Y-93672914D02*
X141406476Y-93720533D01*
X152092819Y-130778666D02*
X151616628Y-131111999D01*
X152092819Y-131350094D02*
X151092819Y-131350094D01*
X151092819Y-131350094D02*
X151092819Y-130969142D01*
X151092819Y-130969142D02*
X151140438Y-130873904D01*
X151140438Y-130873904D02*
X151188057Y-130826285D01*
X151188057Y-130826285D02*
X151283295Y-130778666D01*
X151283295Y-130778666D02*
X151426152Y-130778666D01*
X151426152Y-130778666D02*
X151521390Y-130826285D01*
X151521390Y-130826285D02*
X151569009Y-130873904D01*
X151569009Y-130873904D02*
X151616628Y-130969142D01*
X151616628Y-130969142D02*
X151616628Y-131350094D01*
X151092819Y-130445332D02*
X151092819Y-129826285D01*
X151092819Y-129826285D02*
X151473771Y-130159618D01*
X151473771Y-130159618D02*
X151473771Y-130016761D01*
X151473771Y-130016761D02*
X151521390Y-129921523D01*
X151521390Y-129921523D02*
X151569009Y-129873904D01*
X151569009Y-129873904D02*
X151664247Y-129826285D01*
X151664247Y-129826285D02*
X151902342Y-129826285D01*
X151902342Y-129826285D02*
X151997580Y-129873904D01*
X151997580Y-129873904D02*
X152045200Y-129921523D01*
X152045200Y-129921523D02*
X152092819Y-130016761D01*
X152092819Y-130016761D02*
X152092819Y-130302475D01*
X152092819Y-130302475D02*
X152045200Y-130397713D01*
X152045200Y-130397713D02*
X151997580Y-130445332D01*
X140333333Y-127859580D02*
X140285714Y-127907200D01*
X140285714Y-127907200D02*
X140142857Y-127954819D01*
X140142857Y-127954819D02*
X140047619Y-127954819D01*
X140047619Y-127954819D02*
X139904762Y-127907200D01*
X139904762Y-127907200D02*
X139809524Y-127811961D01*
X139809524Y-127811961D02*
X139761905Y-127716723D01*
X139761905Y-127716723D02*
X139714286Y-127526247D01*
X139714286Y-127526247D02*
X139714286Y-127383390D01*
X139714286Y-127383390D02*
X139761905Y-127192914D01*
X139761905Y-127192914D02*
X139809524Y-127097676D01*
X139809524Y-127097676D02*
X139904762Y-127002438D01*
X139904762Y-127002438D02*
X140047619Y-126954819D01*
X140047619Y-126954819D02*
X140142857Y-126954819D01*
X140142857Y-126954819D02*
X140285714Y-127002438D01*
X140285714Y-127002438D02*
X140333333Y-127050057D01*
X141238095Y-126954819D02*
X140761905Y-126954819D01*
X140761905Y-126954819D02*
X140714286Y-127431009D01*
X140714286Y-127431009D02*
X140761905Y-127383390D01*
X140761905Y-127383390D02*
X140857143Y-127335771D01*
X140857143Y-127335771D02*
X141095238Y-127335771D01*
X141095238Y-127335771D02*
X141190476Y-127383390D01*
X141190476Y-127383390D02*
X141238095Y-127431009D01*
X141238095Y-127431009D02*
X141285714Y-127526247D01*
X141285714Y-127526247D02*
X141285714Y-127764342D01*
X141285714Y-127764342D02*
X141238095Y-127859580D01*
X141238095Y-127859580D02*
X141190476Y-127907200D01*
X141190476Y-127907200D02*
X141095238Y-127954819D01*
X141095238Y-127954819D02*
X140857143Y-127954819D01*
X140857143Y-127954819D02*
X140761905Y-127907200D01*
X140761905Y-127907200D02*
X140714286Y-127859580D01*
X128333333Y-86542319D02*
X128000000Y-86066128D01*
X127761905Y-86542319D02*
X127761905Y-85542319D01*
X127761905Y-85542319D02*
X128142857Y-85542319D01*
X128142857Y-85542319D02*
X128238095Y-85589938D01*
X128238095Y-85589938D02*
X128285714Y-85637557D01*
X128285714Y-85637557D02*
X128333333Y-85732795D01*
X128333333Y-85732795D02*
X128333333Y-85875652D01*
X128333333Y-85875652D02*
X128285714Y-85970890D01*
X128285714Y-85970890D02*
X128238095Y-86018509D01*
X128238095Y-86018509D02*
X128142857Y-86066128D01*
X128142857Y-86066128D02*
X127761905Y-86066128D01*
X129190476Y-85875652D02*
X129190476Y-86542319D01*
X128952381Y-85494700D02*
X128714286Y-86208985D01*
X128714286Y-86208985D02*
X129333333Y-86208985D01*
X128333333Y-81454819D02*
X128000000Y-80978628D01*
X127761905Y-81454819D02*
X127761905Y-80454819D01*
X127761905Y-80454819D02*
X128142857Y-80454819D01*
X128142857Y-80454819D02*
X128238095Y-80502438D01*
X128238095Y-80502438D02*
X128285714Y-80550057D01*
X128285714Y-80550057D02*
X128333333Y-80645295D01*
X128333333Y-80645295D02*
X128333333Y-80788152D01*
X128333333Y-80788152D02*
X128285714Y-80883390D01*
X128285714Y-80883390D02*
X128238095Y-80931009D01*
X128238095Y-80931009D02*
X128142857Y-80978628D01*
X128142857Y-80978628D02*
X127761905Y-80978628D01*
X129238095Y-80454819D02*
X128761905Y-80454819D01*
X128761905Y-80454819D02*
X128714286Y-80931009D01*
X128714286Y-80931009D02*
X128761905Y-80883390D01*
X128761905Y-80883390D02*
X128857143Y-80835771D01*
X128857143Y-80835771D02*
X129095238Y-80835771D01*
X129095238Y-80835771D02*
X129190476Y-80883390D01*
X129190476Y-80883390D02*
X129238095Y-80931009D01*
X129238095Y-80931009D02*
X129285714Y-81026247D01*
X129285714Y-81026247D02*
X129285714Y-81264342D01*
X129285714Y-81264342D02*
X129238095Y-81359580D01*
X129238095Y-81359580D02*
X129190476Y-81407200D01*
X129190476Y-81407200D02*
X129095238Y-81454819D01*
X129095238Y-81454819D02*
X128857143Y-81454819D01*
X128857143Y-81454819D02*
X128761905Y-81407200D01*
X128761905Y-81407200D02*
X128714286Y-81359580D01*
X140277333Y-97641580D02*
X140229714Y-97689200D01*
X140229714Y-97689200D02*
X140086857Y-97736819D01*
X140086857Y-97736819D02*
X139991619Y-97736819D01*
X139991619Y-97736819D02*
X139848762Y-97689200D01*
X139848762Y-97689200D02*
X139753524Y-97593961D01*
X139753524Y-97593961D02*
X139705905Y-97498723D01*
X139705905Y-97498723D02*
X139658286Y-97308247D01*
X139658286Y-97308247D02*
X139658286Y-97165390D01*
X139658286Y-97165390D02*
X139705905Y-96974914D01*
X139705905Y-96974914D02*
X139753524Y-96879676D01*
X139753524Y-96879676D02*
X139848762Y-96784438D01*
X139848762Y-96784438D02*
X139991619Y-96736819D01*
X139991619Y-96736819D02*
X140086857Y-96736819D01*
X140086857Y-96736819D02*
X140229714Y-96784438D01*
X140229714Y-96784438D02*
X140277333Y-96832057D01*
X140753524Y-97736819D02*
X140944000Y-97736819D01*
X140944000Y-97736819D02*
X141039238Y-97689200D01*
X141039238Y-97689200D02*
X141086857Y-97641580D01*
X141086857Y-97641580D02*
X141182095Y-97498723D01*
X141182095Y-97498723D02*
X141229714Y-97308247D01*
X141229714Y-97308247D02*
X141229714Y-96927295D01*
X141229714Y-96927295D02*
X141182095Y-96832057D01*
X141182095Y-96832057D02*
X141134476Y-96784438D01*
X141134476Y-96784438D02*
X141039238Y-96736819D01*
X141039238Y-96736819D02*
X140848762Y-96736819D01*
X140848762Y-96736819D02*
X140753524Y-96784438D01*
X140753524Y-96784438D02*
X140705905Y-96832057D01*
X140705905Y-96832057D02*
X140658286Y-96927295D01*
X140658286Y-96927295D02*
X140658286Y-97165390D01*
X140658286Y-97165390D02*
X140705905Y-97260628D01*
X140705905Y-97260628D02*
X140753524Y-97308247D01*
X140753524Y-97308247D02*
X140848762Y-97355866D01*
X140848762Y-97355866D02*
X141039238Y-97355866D01*
X141039238Y-97355866D02*
X141134476Y-97308247D01*
X141134476Y-97308247D02*
X141182095Y-97260628D01*
X141182095Y-97260628D02*
X141229714Y-97165390D01*
X155704819Y-130666666D02*
X155228628Y-130999999D01*
X155704819Y-131238094D02*
X154704819Y-131238094D01*
X154704819Y-131238094D02*
X154704819Y-130857142D01*
X154704819Y-130857142D02*
X154752438Y-130761904D01*
X154752438Y-130761904D02*
X154800057Y-130714285D01*
X154800057Y-130714285D02*
X154895295Y-130666666D01*
X154895295Y-130666666D02*
X155038152Y-130666666D01*
X155038152Y-130666666D02*
X155133390Y-130714285D01*
X155133390Y-130714285D02*
X155181009Y-130761904D01*
X155181009Y-130761904D02*
X155228628Y-130857142D01*
X155228628Y-130857142D02*
X155228628Y-131238094D01*
X154800057Y-130285713D02*
X154752438Y-130238094D01*
X154752438Y-130238094D02*
X154704819Y-130142856D01*
X154704819Y-130142856D02*
X154704819Y-129904761D01*
X154704819Y-129904761D02*
X154752438Y-129809523D01*
X154752438Y-129809523D02*
X154800057Y-129761904D01*
X154800057Y-129761904D02*
X154895295Y-129714285D01*
X154895295Y-129714285D02*
X154990533Y-129714285D01*
X154990533Y-129714285D02*
X155133390Y-129761904D01*
X155133390Y-129761904D02*
X155704819Y-130333332D01*
X155704819Y-130333332D02*
X155704819Y-129714285D01*
X143833333Y-103359580D02*
X143785714Y-103407200D01*
X143785714Y-103407200D02*
X143642857Y-103454819D01*
X143642857Y-103454819D02*
X143547619Y-103454819D01*
X143547619Y-103454819D02*
X143404762Y-103407200D01*
X143404762Y-103407200D02*
X143309524Y-103311961D01*
X143309524Y-103311961D02*
X143261905Y-103216723D01*
X143261905Y-103216723D02*
X143214286Y-103026247D01*
X143214286Y-103026247D02*
X143214286Y-102883390D01*
X143214286Y-102883390D02*
X143261905Y-102692914D01*
X143261905Y-102692914D02*
X143309524Y-102597676D01*
X143309524Y-102597676D02*
X143404762Y-102502438D01*
X143404762Y-102502438D02*
X143547619Y-102454819D01*
X143547619Y-102454819D02*
X143642857Y-102454819D01*
X143642857Y-102454819D02*
X143785714Y-102502438D01*
X143785714Y-102502438D02*
X143833333Y-102550057D01*
X144166667Y-102454819D02*
X144833333Y-102454819D01*
X144833333Y-102454819D02*
X144404762Y-103454819D01*
X143121142Y-97641580D02*
X143073523Y-97689200D01*
X143073523Y-97689200D02*
X142930666Y-97736819D01*
X142930666Y-97736819D02*
X142835428Y-97736819D01*
X142835428Y-97736819D02*
X142692571Y-97689200D01*
X142692571Y-97689200D02*
X142597333Y-97593961D01*
X142597333Y-97593961D02*
X142549714Y-97498723D01*
X142549714Y-97498723D02*
X142502095Y-97308247D01*
X142502095Y-97308247D02*
X142502095Y-97165390D01*
X142502095Y-97165390D02*
X142549714Y-96974914D01*
X142549714Y-96974914D02*
X142597333Y-96879676D01*
X142597333Y-96879676D02*
X142692571Y-96784438D01*
X142692571Y-96784438D02*
X142835428Y-96736819D01*
X142835428Y-96736819D02*
X142930666Y-96736819D01*
X142930666Y-96736819D02*
X143073523Y-96784438D01*
X143073523Y-96784438D02*
X143121142Y-96832057D01*
X144073523Y-97736819D02*
X143502095Y-97736819D01*
X143787809Y-97736819D02*
X143787809Y-96736819D01*
X143787809Y-96736819D02*
X143692571Y-96879676D01*
X143692571Y-96879676D02*
X143597333Y-96974914D01*
X143597333Y-96974914D02*
X143502095Y-97022533D01*
X144692571Y-96736819D02*
X144787809Y-96736819D01*
X144787809Y-96736819D02*
X144883047Y-96784438D01*
X144883047Y-96784438D02*
X144930666Y-96832057D01*
X144930666Y-96832057D02*
X144978285Y-96927295D01*
X144978285Y-96927295D02*
X145025904Y-97117771D01*
X145025904Y-97117771D02*
X145025904Y-97355866D01*
X145025904Y-97355866D02*
X144978285Y-97546342D01*
X144978285Y-97546342D02*
X144930666Y-97641580D01*
X144930666Y-97641580D02*
X144883047Y-97689200D01*
X144883047Y-97689200D02*
X144787809Y-97736819D01*
X144787809Y-97736819D02*
X144692571Y-97736819D01*
X144692571Y-97736819D02*
X144597333Y-97689200D01*
X144597333Y-97689200D02*
X144549714Y-97641580D01*
X144549714Y-97641580D02*
X144502095Y-97546342D01*
X144502095Y-97546342D02*
X144454476Y-97355866D01*
X144454476Y-97355866D02*
X144454476Y-97117771D01*
X144454476Y-97117771D02*
X144502095Y-96927295D01*
X144502095Y-96927295D02*
X144549714Y-96832057D01*
X144549714Y-96832057D02*
X144597333Y-96784438D01*
X144597333Y-96784438D02*
X144692571Y-96736819D01*
X149333333Y-101809580D02*
X149285714Y-101857200D01*
X149285714Y-101857200D02*
X149142857Y-101904819D01*
X149142857Y-101904819D02*
X149047619Y-101904819D01*
X149047619Y-101904819D02*
X148904762Y-101857200D01*
X148904762Y-101857200D02*
X148809524Y-101761961D01*
X148809524Y-101761961D02*
X148761905Y-101666723D01*
X148761905Y-101666723D02*
X148714286Y-101476247D01*
X148714286Y-101476247D02*
X148714286Y-101333390D01*
X148714286Y-101333390D02*
X148761905Y-101142914D01*
X148761905Y-101142914D02*
X148809524Y-101047676D01*
X148809524Y-101047676D02*
X148904762Y-100952438D01*
X148904762Y-100952438D02*
X149047619Y-100904819D01*
X149047619Y-100904819D02*
X149142857Y-100904819D01*
X149142857Y-100904819D02*
X149285714Y-100952438D01*
X149285714Y-100952438D02*
X149333333Y-101000057D01*
X150285714Y-101904819D02*
X149714286Y-101904819D01*
X150000000Y-101904819D02*
X150000000Y-100904819D01*
X150000000Y-100904819D02*
X149904762Y-101047676D01*
X149904762Y-101047676D02*
X149809524Y-101142914D01*
X149809524Y-101142914D02*
X149714286Y-101190533D01*
X147238095Y-129954819D02*
X147238095Y-130764342D01*
X147238095Y-130764342D02*
X147285714Y-130859580D01*
X147285714Y-130859580D02*
X147333333Y-130907200D01*
X147333333Y-130907200D02*
X147428571Y-130954819D01*
X147428571Y-130954819D02*
X147619047Y-130954819D01*
X147619047Y-130954819D02*
X147714285Y-130907200D01*
X147714285Y-130907200D02*
X147761904Y-130859580D01*
X147761904Y-130859580D02*
X147809523Y-130764342D01*
X147809523Y-130764342D02*
X147809523Y-129954819D01*
X148238095Y-130050057D02*
X148285714Y-130002438D01*
X148285714Y-130002438D02*
X148380952Y-129954819D01*
X148380952Y-129954819D02*
X148619047Y-129954819D01*
X148619047Y-129954819D02*
X148714285Y-130002438D01*
X148714285Y-130002438D02*
X148761904Y-130050057D01*
X148761904Y-130050057D02*
X148809523Y-130145295D01*
X148809523Y-130145295D02*
X148809523Y-130240533D01*
X148809523Y-130240533D02*
X148761904Y-130383390D01*
X148761904Y-130383390D02*
X148190476Y-130954819D01*
X148190476Y-130954819D02*
X148809523Y-130954819D01*
X138166666Y-81954819D02*
X138166666Y-82669104D01*
X138166666Y-82669104D02*
X138119047Y-82811961D01*
X138119047Y-82811961D02*
X138023809Y-82907200D01*
X138023809Y-82907200D02*
X137880952Y-82954819D01*
X137880952Y-82954819D02*
X137785714Y-82954819D01*
X138595238Y-82050057D02*
X138642857Y-82002438D01*
X138642857Y-82002438D02*
X138738095Y-81954819D01*
X138738095Y-81954819D02*
X138976190Y-81954819D01*
X138976190Y-81954819D02*
X139071428Y-82002438D01*
X139071428Y-82002438D02*
X139119047Y-82050057D01*
X139119047Y-82050057D02*
X139166666Y-82145295D01*
X139166666Y-82145295D02*
X139166666Y-82240533D01*
X139166666Y-82240533D02*
X139119047Y-82383390D01*
X139119047Y-82383390D02*
X138547619Y-82954819D01*
X138547619Y-82954819D02*
X139166666Y-82954819D01*
X142833333Y-127859580D02*
X142785714Y-127907200D01*
X142785714Y-127907200D02*
X142642857Y-127954819D01*
X142642857Y-127954819D02*
X142547619Y-127954819D01*
X142547619Y-127954819D02*
X142404762Y-127907200D01*
X142404762Y-127907200D02*
X142309524Y-127811961D01*
X142309524Y-127811961D02*
X142261905Y-127716723D01*
X142261905Y-127716723D02*
X142214286Y-127526247D01*
X142214286Y-127526247D02*
X142214286Y-127383390D01*
X142214286Y-127383390D02*
X142261905Y-127192914D01*
X142261905Y-127192914D02*
X142309524Y-127097676D01*
X142309524Y-127097676D02*
X142404762Y-127002438D01*
X142404762Y-127002438D02*
X142547619Y-126954819D01*
X142547619Y-126954819D02*
X142642857Y-126954819D01*
X142642857Y-126954819D02*
X142785714Y-127002438D01*
X142785714Y-127002438D02*
X142833333Y-127050057D01*
X143690476Y-126954819D02*
X143500000Y-126954819D01*
X143500000Y-126954819D02*
X143404762Y-127002438D01*
X143404762Y-127002438D02*
X143357143Y-127050057D01*
X143357143Y-127050057D02*
X143261905Y-127192914D01*
X143261905Y-127192914D02*
X143214286Y-127383390D01*
X143214286Y-127383390D02*
X143214286Y-127764342D01*
X143214286Y-127764342D02*
X143261905Y-127859580D01*
X143261905Y-127859580D02*
X143309524Y-127907200D01*
X143309524Y-127907200D02*
X143404762Y-127954819D01*
X143404762Y-127954819D02*
X143595238Y-127954819D01*
X143595238Y-127954819D02*
X143690476Y-127907200D01*
X143690476Y-127907200D02*
X143738095Y-127859580D01*
X143738095Y-127859580D02*
X143785714Y-127764342D01*
X143785714Y-127764342D02*
X143785714Y-127526247D01*
X143785714Y-127526247D02*
X143738095Y-127431009D01*
X143738095Y-127431009D02*
X143690476Y-127383390D01*
X143690476Y-127383390D02*
X143595238Y-127335771D01*
X143595238Y-127335771D02*
X143404762Y-127335771D01*
X143404762Y-127335771D02*
X143309524Y-127383390D01*
X143309524Y-127383390D02*
X143261905Y-127431009D01*
X143261905Y-127431009D02*
X143214286Y-127526247D01*
X152528819Y-90423904D02*
X153338342Y-90423904D01*
X153338342Y-90423904D02*
X153433580Y-90376285D01*
X153433580Y-90376285D02*
X153481200Y-90328666D01*
X153481200Y-90328666D02*
X153528819Y-90233428D01*
X153528819Y-90233428D02*
X153528819Y-90042952D01*
X153528819Y-90042952D02*
X153481200Y-89947714D01*
X153481200Y-89947714D02*
X153433580Y-89900095D01*
X153433580Y-89900095D02*
X153338342Y-89852476D01*
X153338342Y-89852476D02*
X152528819Y-89852476D01*
X152528819Y-89471523D02*
X152528819Y-88852476D01*
X152528819Y-88852476D02*
X152909771Y-89185809D01*
X152909771Y-89185809D02*
X152909771Y-89042952D01*
X152909771Y-89042952D02*
X152957390Y-88947714D01*
X152957390Y-88947714D02*
X153005009Y-88900095D01*
X153005009Y-88900095D02*
X153100247Y-88852476D01*
X153100247Y-88852476D02*
X153338342Y-88852476D01*
X153338342Y-88852476D02*
X153433580Y-88900095D01*
X153433580Y-88900095D02*
X153481200Y-88947714D01*
X153481200Y-88947714D02*
X153528819Y-89042952D01*
X153528819Y-89042952D02*
X153528819Y-89328666D01*
X153528819Y-89328666D02*
X153481200Y-89423904D01*
X153481200Y-89423904D02*
X153433580Y-89471523D01*
X156859580Y-127666666D02*
X156907200Y-127714285D01*
X156907200Y-127714285D02*
X156954819Y-127857142D01*
X156954819Y-127857142D02*
X156954819Y-127952380D01*
X156954819Y-127952380D02*
X156907200Y-128095237D01*
X156907200Y-128095237D02*
X156811961Y-128190475D01*
X156811961Y-128190475D02*
X156716723Y-128238094D01*
X156716723Y-128238094D02*
X156526247Y-128285713D01*
X156526247Y-128285713D02*
X156383390Y-128285713D01*
X156383390Y-128285713D02*
X156192914Y-128238094D01*
X156192914Y-128238094D02*
X156097676Y-128190475D01*
X156097676Y-128190475D02*
X156002438Y-128095237D01*
X156002438Y-128095237D02*
X155954819Y-127952380D01*
X155954819Y-127952380D02*
X155954819Y-127857142D01*
X155954819Y-127857142D02*
X156002438Y-127714285D01*
X156002438Y-127714285D02*
X156050057Y-127666666D01*
X156288152Y-126809523D02*
X156954819Y-126809523D01*
X155907200Y-127047618D02*
X156621485Y-127285713D01*
X156621485Y-127285713D02*
X156621485Y-126666666D01*
X132454819Y-89666666D02*
X131978628Y-89999999D01*
X132454819Y-90238094D02*
X131454819Y-90238094D01*
X131454819Y-90238094D02*
X131454819Y-89857142D01*
X131454819Y-89857142D02*
X131502438Y-89761904D01*
X131502438Y-89761904D02*
X131550057Y-89714285D01*
X131550057Y-89714285D02*
X131645295Y-89666666D01*
X131645295Y-89666666D02*
X131788152Y-89666666D01*
X131788152Y-89666666D02*
X131883390Y-89714285D01*
X131883390Y-89714285D02*
X131931009Y-89761904D01*
X131931009Y-89761904D02*
X131978628Y-89857142D01*
X131978628Y-89857142D02*
X131978628Y-90238094D01*
X132454819Y-88714285D02*
X132454819Y-89285713D01*
X132454819Y-88999999D02*
X131454819Y-88999999D01*
X131454819Y-88999999D02*
X131597676Y-89095237D01*
X131597676Y-89095237D02*
X131692914Y-89190475D01*
X131692914Y-89190475D02*
X131740533Y-89285713D01*
X140313580Y-88526857D02*
X140361200Y-88574476D01*
X140361200Y-88574476D02*
X140408819Y-88717333D01*
X140408819Y-88717333D02*
X140408819Y-88812571D01*
X140408819Y-88812571D02*
X140361200Y-88955428D01*
X140361200Y-88955428D02*
X140265961Y-89050666D01*
X140265961Y-89050666D02*
X140170723Y-89098285D01*
X140170723Y-89098285D02*
X139980247Y-89145904D01*
X139980247Y-89145904D02*
X139837390Y-89145904D01*
X139837390Y-89145904D02*
X139646914Y-89098285D01*
X139646914Y-89098285D02*
X139551676Y-89050666D01*
X139551676Y-89050666D02*
X139456438Y-88955428D01*
X139456438Y-88955428D02*
X139408819Y-88812571D01*
X139408819Y-88812571D02*
X139408819Y-88717333D01*
X139408819Y-88717333D02*
X139456438Y-88574476D01*
X139456438Y-88574476D02*
X139504057Y-88526857D01*
X140408819Y-87574476D02*
X140408819Y-88145904D01*
X140408819Y-87860190D02*
X139408819Y-87860190D01*
X139408819Y-87860190D02*
X139551676Y-87955428D01*
X139551676Y-87955428D02*
X139646914Y-88050666D01*
X139646914Y-88050666D02*
X139694533Y-88145904D01*
X139504057Y-87193523D02*
X139456438Y-87145904D01*
X139456438Y-87145904D02*
X139408819Y-87050666D01*
X139408819Y-87050666D02*
X139408819Y-86812571D01*
X139408819Y-86812571D02*
X139456438Y-86717333D01*
X139456438Y-86717333D02*
X139504057Y-86669714D01*
X139504057Y-86669714D02*
X139599295Y-86622095D01*
X139599295Y-86622095D02*
X139694533Y-86622095D01*
X139694533Y-86622095D02*
X139837390Y-86669714D01*
X139837390Y-86669714D02*
X140408819Y-87241142D01*
X140408819Y-87241142D02*
X140408819Y-86622095D01*
X127261905Y-119454819D02*
X127261905Y-118454819D01*
X127261905Y-118454819D02*
X127500000Y-118454819D01*
X127500000Y-118454819D02*
X127642857Y-118502438D01*
X127642857Y-118502438D02*
X127738095Y-118597676D01*
X127738095Y-118597676D02*
X127785714Y-118692914D01*
X127785714Y-118692914D02*
X127833333Y-118883390D01*
X127833333Y-118883390D02*
X127833333Y-119026247D01*
X127833333Y-119026247D02*
X127785714Y-119216723D01*
X127785714Y-119216723D02*
X127738095Y-119311961D01*
X127738095Y-119311961D02*
X127642857Y-119407200D01*
X127642857Y-119407200D02*
X127500000Y-119454819D01*
X127500000Y-119454819D02*
X127261905Y-119454819D01*
X128785714Y-119454819D02*
X128214286Y-119454819D01*
X128500000Y-119454819D02*
X128500000Y-118454819D01*
X128500000Y-118454819D02*
X128404762Y-118597676D01*
X128404762Y-118597676D02*
X128309524Y-118692914D01*
X128309524Y-118692914D02*
X128214286Y-118740533D01*
X155359580Y-124666666D02*
X155407200Y-124714285D01*
X155407200Y-124714285D02*
X155454819Y-124857142D01*
X155454819Y-124857142D02*
X155454819Y-124952380D01*
X155454819Y-124952380D02*
X155407200Y-125095237D01*
X155407200Y-125095237D02*
X155311961Y-125190475D01*
X155311961Y-125190475D02*
X155216723Y-125238094D01*
X155216723Y-125238094D02*
X155026247Y-125285713D01*
X155026247Y-125285713D02*
X154883390Y-125285713D01*
X154883390Y-125285713D02*
X154692914Y-125238094D01*
X154692914Y-125238094D02*
X154597676Y-125190475D01*
X154597676Y-125190475D02*
X154502438Y-125095237D01*
X154502438Y-125095237D02*
X154454819Y-124952380D01*
X154454819Y-124952380D02*
X154454819Y-124857142D01*
X154454819Y-124857142D02*
X154502438Y-124714285D01*
X154502438Y-124714285D02*
X154550057Y-124666666D01*
X154454819Y-124333332D02*
X154454819Y-123714285D01*
X154454819Y-123714285D02*
X154835771Y-124047618D01*
X154835771Y-124047618D02*
X154835771Y-123904761D01*
X154835771Y-123904761D02*
X154883390Y-123809523D01*
X154883390Y-123809523D02*
X154931009Y-123761904D01*
X154931009Y-123761904D02*
X155026247Y-123714285D01*
X155026247Y-123714285D02*
X155264342Y-123714285D01*
X155264342Y-123714285D02*
X155359580Y-123761904D01*
X155359580Y-123761904D02*
X155407200Y-123809523D01*
X155407200Y-123809523D02*
X155454819Y-123904761D01*
X155454819Y-123904761D02*
X155454819Y-124190475D01*
X155454819Y-124190475D02*
X155407200Y-124285713D01*
X155407200Y-124285713D02*
X155359580Y-124333332D01*
X132359580Y-87166666D02*
X132407200Y-87214285D01*
X132407200Y-87214285D02*
X132454819Y-87357142D01*
X132454819Y-87357142D02*
X132454819Y-87452380D01*
X132454819Y-87452380D02*
X132407200Y-87595237D01*
X132407200Y-87595237D02*
X132311961Y-87690475D01*
X132311961Y-87690475D02*
X132216723Y-87738094D01*
X132216723Y-87738094D02*
X132026247Y-87785713D01*
X132026247Y-87785713D02*
X131883390Y-87785713D01*
X131883390Y-87785713D02*
X131692914Y-87738094D01*
X131692914Y-87738094D02*
X131597676Y-87690475D01*
X131597676Y-87690475D02*
X131502438Y-87595237D01*
X131502438Y-87595237D02*
X131454819Y-87452380D01*
X131454819Y-87452380D02*
X131454819Y-87357142D01*
X131454819Y-87357142D02*
X131502438Y-87214285D01*
X131502438Y-87214285D02*
X131550057Y-87166666D01*
X131550057Y-86785713D02*
X131502438Y-86738094D01*
X131502438Y-86738094D02*
X131454819Y-86642856D01*
X131454819Y-86642856D02*
X131454819Y-86404761D01*
X131454819Y-86404761D02*
X131502438Y-86309523D01*
X131502438Y-86309523D02*
X131550057Y-86261904D01*
X131550057Y-86261904D02*
X131645295Y-86214285D01*
X131645295Y-86214285D02*
X131740533Y-86214285D01*
X131740533Y-86214285D02*
X131883390Y-86261904D01*
X131883390Y-86261904D02*
X132454819Y-86833332D01*
X132454819Y-86833332D02*
X132454819Y-86214285D01*
X140333333Y-103359580D02*
X140285714Y-103407200D01*
X140285714Y-103407200D02*
X140142857Y-103454819D01*
X140142857Y-103454819D02*
X140047619Y-103454819D01*
X140047619Y-103454819D02*
X139904762Y-103407200D01*
X139904762Y-103407200D02*
X139809524Y-103311961D01*
X139809524Y-103311961D02*
X139761905Y-103216723D01*
X139761905Y-103216723D02*
X139714286Y-103026247D01*
X139714286Y-103026247D02*
X139714286Y-102883390D01*
X139714286Y-102883390D02*
X139761905Y-102692914D01*
X139761905Y-102692914D02*
X139809524Y-102597676D01*
X139809524Y-102597676D02*
X139904762Y-102502438D01*
X139904762Y-102502438D02*
X140047619Y-102454819D01*
X140047619Y-102454819D02*
X140142857Y-102454819D01*
X140142857Y-102454819D02*
X140285714Y-102502438D01*
X140285714Y-102502438D02*
X140333333Y-102550057D01*
X140904762Y-102883390D02*
X140809524Y-102835771D01*
X140809524Y-102835771D02*
X140761905Y-102788152D01*
X140761905Y-102788152D02*
X140714286Y-102692914D01*
X140714286Y-102692914D02*
X140714286Y-102645295D01*
X140714286Y-102645295D02*
X140761905Y-102550057D01*
X140761905Y-102550057D02*
X140809524Y-102502438D01*
X140809524Y-102502438D02*
X140904762Y-102454819D01*
X140904762Y-102454819D02*
X141095238Y-102454819D01*
X141095238Y-102454819D02*
X141190476Y-102502438D01*
X141190476Y-102502438D02*
X141238095Y-102550057D01*
X141238095Y-102550057D02*
X141285714Y-102645295D01*
X141285714Y-102645295D02*
X141285714Y-102692914D01*
X141285714Y-102692914D02*
X141238095Y-102788152D01*
X141238095Y-102788152D02*
X141190476Y-102835771D01*
X141190476Y-102835771D02*
X141095238Y-102883390D01*
X141095238Y-102883390D02*
X140904762Y-102883390D01*
X140904762Y-102883390D02*
X140809524Y-102931009D01*
X140809524Y-102931009D02*
X140761905Y-102978628D01*
X140761905Y-102978628D02*
X140714286Y-103073866D01*
X140714286Y-103073866D02*
X140714286Y-103264342D01*
X140714286Y-103264342D02*
X140761905Y-103359580D01*
X140761905Y-103359580D02*
X140809524Y-103407200D01*
X140809524Y-103407200D02*
X140904762Y-103454819D01*
X140904762Y-103454819D02*
X141095238Y-103454819D01*
X141095238Y-103454819D02*
X141190476Y-103407200D01*
X141190476Y-103407200D02*
X141238095Y-103359580D01*
X141238095Y-103359580D02*
X141285714Y-103264342D01*
X141285714Y-103264342D02*
X141285714Y-103073866D01*
X141285714Y-103073866D02*
X141238095Y-102978628D01*
X141238095Y-102978628D02*
X141190476Y-102931009D01*
X141190476Y-102931009D02*
X141095238Y-102883390D01*
D11*
%TO.C,L1*%
X141250000Y-121900000D02*
X144000000Y-121900000D01*
X150000000Y-121900000D02*
X152750000Y-121900000D01*
X140600000Y-121250000D02*
X140600000Y-109750000D01*
X153400000Y-109750000D02*
X153400000Y-121250000D01*
X141250000Y-109100000D02*
X144000000Y-109100000D01*
X150000000Y-109100000D02*
X152750000Y-109100000D01*
X140600000Y-121250000D02*
G75*
G03*
X141250000Y-121900000I650001J1D01*
G01*
X152750000Y-121900000D02*
G75*
G03*
X153400000Y-121250000I-1J650001D01*
G01*
X141250000Y-109100000D02*
G75*
G03*
X140600000Y-109750000I0J-650000D01*
G01*
X153400000Y-109750000D02*
G75*
G03*
X152750000Y-109100000I-650000J0D01*
G01*
%TO.C,C11*%
X141427252Y-92858000D02*
X140004748Y-92858000D01*
X141427252Y-91038000D02*
X140004748Y-91038000D01*
%TO.C,R3*%
X152681000Y-130783064D02*
X152681000Y-130328936D01*
X154151000Y-130783064D02*
X154151000Y-130328936D01*
%TO.C,C5*%
X139590000Y-125211252D02*
X139590000Y-123788748D01*
X141410000Y-125211252D02*
X141410000Y-123788748D01*
%TO.C,R4*%
X127765000Y-88727064D02*
X127765000Y-88272936D01*
X129235000Y-88727064D02*
X129235000Y-88272936D01*
%TO.C,R5*%
X127765000Y-83727064D02*
X127765000Y-83272936D01*
X129235000Y-83727064D02*
X129235000Y-83272936D01*
%TO.C,C9*%
X141804000Y-99364748D02*
X141804000Y-100787252D01*
X139084000Y-99364748D02*
X139084000Y-100787252D01*
%TO.C,R2*%
X157735000Y-130272936D02*
X157735000Y-130727064D01*
X156265000Y-130272936D02*
X156265000Y-130727064D01*
%TO.C,C7*%
X142640000Y-106711252D02*
X142640000Y-105288748D01*
X145360000Y-106711252D02*
X145360000Y-105288748D01*
%TO.C,C10*%
X145378000Y-99364748D02*
X145378000Y-100787252D01*
X142658000Y-99364748D02*
X142658000Y-100787252D01*
%TO.C,C1*%
X150235000Y-103738748D02*
X150235000Y-104261252D01*
X148765000Y-103738748D02*
X148765000Y-104261252D01*
D10*
%TO.C,U2*%
X146075000Y-124075000D02*
X150225000Y-124075000D01*
X146075000Y-129225000D02*
X150225000Y-129225000D01*
D11*
X145475000Y-124175000D02*
X145235000Y-123845000D01*
X145715000Y-123845000D01*
X145475000Y-124175000D01*
G36*
X145475000Y-124175000D02*
G01*
X145235000Y-123845000D01*
X145715000Y-123845000D01*
X145475000Y-124175000D01*
G37*
%TO.C,J2*%
X137110000Y-84285000D02*
X136060000Y-84285000D01*
X137110000Y-81785000D02*
X137110000Y-84285000D01*
X136060000Y-84285000D02*
X136060000Y-85275000D01*
X135940000Y-79815000D02*
X132060000Y-79815000D01*
X130890000Y-84285000D02*
X131940000Y-84285000D01*
X130890000Y-81785000D02*
X130890000Y-84285000D01*
%TO.C,C6*%
X142265000Y-125261252D02*
X142265000Y-124738748D01*
X143735000Y-125261252D02*
X143735000Y-124738748D01*
%TO.C,U3*%
X145724000Y-86252000D02*
X149484000Y-86252000D01*
X145724000Y-93072000D02*
X149484000Y-93072000D01*
X149484000Y-86252000D02*
X149484000Y-87512000D01*
X149484000Y-93072000D02*
X149484000Y-91812000D01*
X144444000Y-86352000D02*
X144204000Y-86022000D01*
X144684000Y-86022000D01*
X144444000Y-86352000D01*
G36*
X144444000Y-86352000D02*
G01*
X144204000Y-86022000D01*
X144684000Y-86022000D01*
X144444000Y-86352000D01*
G37*
%TO.C,C4*%
X153738748Y-126765000D02*
X154261252Y-126765000D01*
X153738748Y-128235000D02*
X154261252Y-128235000D01*
%TO.C,R1*%
X134272936Y-88765000D02*
X134727064Y-88765000D01*
X134272936Y-90235000D02*
X134727064Y-90235000D01*
%TO.C,C12*%
X140822000Y-88595252D02*
X140822000Y-87172748D01*
X142642000Y-88595252D02*
X142642000Y-87172748D01*
%TO.C,D1*%
X136660000Y-121150000D02*
X136660000Y-116850000D01*
X136660000Y-121150000D02*
X130850000Y-121150000D01*
X136660000Y-116850000D02*
X130850000Y-116850000D01*
%TO.C,C3*%
X152415000Y-124761252D02*
X152415000Y-124238748D01*
X153885000Y-124761252D02*
X153885000Y-124238748D01*
%TO.C,C2*%
X134238748Y-86265000D02*
X134761252Y-86265000D01*
X134238748Y-87735000D02*
X134761252Y-87735000D01*
%TO.C,C8*%
X139140000Y-106711252D02*
X139140000Y-105288748D01*
X141860000Y-106711252D02*
X141860000Y-105288748D01*
%TD*%
M02*
