%TF.GenerationSoftware,KiCad,Pcbnew,7.0.11+dfsg-1build4*%
%TF.CreationDate,2026-04-07T16:54:31-05:00*%
%TF.ProjectId,flight-controller,666c6967-6874-42d6-936f-6e74726f6c6c,rev?*%
%TF.SameCoordinates,Original*%
%TF.FileFunction,Soldermask,Bot*%
%TF.FilePolarity,Negative*%
%FSLAX46Y46*%
G04 Gerber Fmt 4.6, Leading zero omitted, Abs format (unit mm)*
G04 Created by KiCad (PCBNEW 7.0.11+dfsg-1build4) date 2026-04-07 16:54:31*
%MOMM*%
%LPD*%
G01*
G04 APERTURE LIST*
G04 Aperture macros list*
%AMRoundRect*
0 Rectangle with rounded corners*
0 $1 Rounding radius*
0 $2 $3 $4 $5 $6 $7 $8 $9 X,Y pos of 4 corners*
0 Add a 4 corners polygon primitive as box body*
4,1,4,$2,$3,$4,$5,$6,$7,$8,$9,$2,$3,0*
0 Add four circle primitives for the rounded corners*
1,1,$1+$1,$2,$3*
1,1,$1+$1,$4,$5*
1,1,$1+$1,$6,$7*
1,1,$1+$1,$8,$9*
0 Add four rect primitives between the rounded corners*
20,1,$1+$1,$2,$3,$4,$5,0*
20,1,$1+$1,$4,$5,$6,$7,0*
20,1,$1+$1,$6,$7,$8,$9,0*
20,1,$1+$1,$8,$9,$2,$3,0*%
%AMHorizOval*
0 Thick line with rounded ends*
0 $1 width*
0 $2 $3 position (X,Y) of the first rounded end (center of the circle)*
0 $4 $5 position (X,Y) of the second rounded end (center of the circle)*
0 Add line between two ends*
20,1,$1,$2,$3,$4,$5,0*
0 Add two circle primitives to create the rounded ends*
1,1,$1,$2,$3*
1,1,$1,$4,$5*%
G04 Aperture macros list end*
%ADD10C,2.700000*%
%ADD11RoundRect,0.102000X1.858000X1.858000X-1.858000X1.858000X-1.858000X-1.858000X1.858000X-1.858000X0*%
%ADD12C,3.920000*%
%ADD13O,1.404000X2.604000*%
%ADD14R,1.500000X1.500000*%
%ADD15C,1.500000*%
%ADD16HorizOval,0.800000X0.000000X0.000000X0.000000X0.000000X0*%
%ADD17HorizOval,0.800000X0.000000X0.000000X0.000000X0.000000X0*%
%ADD18C,0.800000*%
%ADD19O,6.000000X9.000000*%
%ADD20RoundRect,0.102000X1.858000X-1.858000X1.858000X1.858000X-1.858000X1.858000X-1.858000X-1.858000X0*%
%ADD21O,2.804000X1.504000*%
%ADD22RoundRect,0.102000X-1.858000X1.858000X-1.858000X-1.858000X1.858000X-1.858000X1.858000X1.858000X0*%
G04 APERTURE END LIST*
D10*
%TO.C,REF\u002A\u002A*%
X162000000Y-82000000D03*
%TD*%
%TO.C,REF\u002A\u002A*%
X117000000Y-82000000D03*
%TD*%
%TO.C,REF\u002A\u002A*%
X162000000Y-130000000D03*
%TD*%
%TO.C,REF\u002A\u002A*%
X117000000Y-130000000D03*
%TD*%
D11*
%TO.C,J1*%
X136600000Y-124055000D03*
D12*
X129400000Y-124055000D03*
D13*
X139750000Y-130055000D03*
X126250000Y-130055000D03*
%TD*%
D14*
%TO.C,U1*%
X151825000Y-103100000D03*
D15*
X151825000Y-105010000D03*
X151825000Y-106920000D03*
D16*
X131055000Y-106060000D03*
D17*
X129795000Y-106060000D03*
D18*
X132085000Y-106810000D03*
X128765000Y-106810000D03*
X132475000Y-108010000D03*
X128375000Y-108010000D03*
X132475000Y-109340000D03*
X128375000Y-109340000D03*
D19*
X130425000Y-110010000D03*
D18*
X132475000Y-110680000D03*
X128375000Y-110680000D03*
X132475000Y-112010000D03*
X128375000Y-112010000D03*
X132085000Y-113210000D03*
X128765000Y-113210000D03*
X131055000Y-113960000D03*
X129795000Y-113960000D03*
X131055000Y-96060000D03*
X129795000Y-96060000D03*
X132085000Y-96810000D03*
X128765000Y-96810000D03*
X132475000Y-98010000D03*
X128375000Y-98010000D03*
X132475000Y-99340000D03*
X128375000Y-99340000D03*
D19*
X130425000Y-100010000D03*
D18*
X132475000Y-100680000D03*
X128375000Y-100680000D03*
X132475000Y-102010000D03*
X128375000Y-102010000D03*
X132085000Y-103210000D03*
X128765000Y-103210000D03*
D17*
X131055000Y-103960000D03*
D16*
X129795000Y-103960000D03*
%TD*%
D20*
%TO.C,J4*%
X122570000Y-112400000D03*
D12*
X122570000Y-119600000D03*
D21*
X116570000Y-122750000D03*
X116570000Y-109250000D03*
%TD*%
D22*
%TO.C,J6*%
X156430000Y-119600000D03*
D12*
X156430000Y-112400000D03*
D21*
X162430000Y-109250000D03*
X162430000Y-122750000D03*
%TD*%
D20*
%TO.C,J3*%
X122500000Y-92400000D03*
D12*
X122500000Y-99600000D03*
D21*
X116500000Y-102750000D03*
X116500000Y-89250000D03*
%TD*%
D22*
%TO.C,J5*%
X156500000Y-99600000D03*
D12*
X156500000Y-92400000D03*
D21*
X162500000Y-89250000D03*
X162500000Y-102750000D03*
%TD*%
M02*
