%TF.GenerationSoftware,KiCad,Pcbnew,7.0.11+dfsg-1build4*%
%TF.CreationDate,2026-04-07T16:54:31-05:00*%
%TF.ProjectId,flight-controller,666c6967-6874-42d6-936f-6e74726f6c6c,rev?*%
%TF.SameCoordinates,Original*%
%TF.FileFunction,Paste,Top*%
%TF.FilePolarity,Positive*%
%FSLAX46Y46*%
G04 Gerber Fmt 4.6, Leading zero omitted, Abs format (unit mm)*
G04 Created by KiCad (PCBNEW 7.0.11+dfsg-1build4) date 2026-04-07 16:54:31*
%MOMM*%
%LPD*%
G01*
G04 APERTURE LIST*
G04 Aperture macros list*
%AMRoundRect*
0 Rectangle with rounded corners*
0 $1 Rounding radius*
0 $2 $3 $4 $5 $6 $7 $8 $9 X,Y pos of 4 corners*
0 Add a 4 corners polygon primitive as box body*
4,1,4,$2,$3,$4,$5,$6,$7,$8,$9,$2,$3,0*
0 Add four circle primitives for the rounded corners*
1,1,$1+$1,$2,$3*
1,1,$1+$1,$4,$5*
1,1,$1+$1,$6,$7*
1,1,$1+$1,$8,$9*
0 Add four rect primitives between the rounded corners*
20,1,$1+$1,$2,$3,$4,$5,0*
20,1,$1+$1,$4,$5,$6,$7,0*
20,1,$1+$1,$6,$7,$8,$9,0*
20,1,$1+$1,$8,$9,$2,$3,0*%
G04 Aperture macros list end*
%ADD10R,5.400000X2.900000*%
%ADD11RoundRect,0.250000X0.325000X0.650000X-0.325000X0.650000X-0.325000X-0.650000X0.325000X-0.650000X0*%
%ADD12RoundRect,0.250000X0.450000X-0.262500X0.450000X0.262500X-0.450000X0.262500X-0.450000X-0.262500X0*%
%ADD13RoundRect,0.250000X0.650000X-0.325000X0.650000X0.325000X-0.650000X0.325000X-0.650000X-0.325000X0*%
%ADD14RoundRect,0.250000X-1.100000X0.325000X-1.100000X-0.325000X1.100000X-0.325000X1.100000X0.325000X0*%
%ADD15RoundRect,0.250000X-0.450000X0.262500X-0.450000X-0.262500X0.450000X-0.262500X0.450000X0.262500X0*%
%ADD16RoundRect,0.250000X1.100000X-0.325000X1.100000X0.325000X-1.100000X0.325000X-1.100000X-0.325000X0*%
%ADD17RoundRect,0.250000X-0.475000X0.250000X-0.475000X-0.250000X0.475000X-0.250000X0.475000X0.250000X0*%
%ADD18R,2.600000X3.100000*%
%ADD19R,1.550000X0.600000*%
%ADD20RoundRect,0.150000X0.150000X0.625000X-0.150000X0.625000X-0.150000X-0.625000X0.150000X-0.625000X0*%
%ADD21RoundRect,0.250000X0.350000X0.650000X-0.350000X0.650000X-0.350000X-0.650000X0.350000X-0.650000X0*%
%ADD22RoundRect,0.250000X0.475000X-0.250000X0.475000X0.250000X-0.475000X0.250000X-0.475000X-0.250000X0*%
%ADD23RoundRect,0.375000X-0.625000X-0.375000X0.625000X-0.375000X0.625000X0.375000X-0.625000X0.375000X0*%
%ADD24RoundRect,0.500000X-0.500000X-1.400000X0.500000X-1.400000X0.500000X1.400000X-0.500000X1.400000X0*%
%ADD25RoundRect,0.250000X-0.250000X-0.475000X0.250000X-0.475000X0.250000X0.475000X-0.250000X0.475000X0*%
%ADD26RoundRect,0.250000X-0.262500X-0.450000X0.262500X-0.450000X0.262500X0.450000X-0.262500X0.450000X0*%
%ADD27RoundRect,0.250000X1.000000X0.900000X-1.000000X0.900000X-1.000000X-0.900000X1.000000X-0.900000X0*%
G04 APERTURE END LIST*
D10*
%TO.C,L1*%
X147000000Y-120350000D03*
X147000000Y-110650000D03*
%TD*%
D11*
%TO.C,C11*%
X142191000Y-91948000D03*
X139241000Y-91948000D03*
%TD*%
D12*
%TO.C,R3*%
X153416000Y-131468500D03*
X153416000Y-129643500D03*
%TD*%
D13*
%TO.C,C5*%
X140500000Y-125975000D03*
X140500000Y-123025000D03*
%TD*%
D12*
%TO.C,R4*%
X128500000Y-89412500D03*
X128500000Y-87587500D03*
%TD*%
%TO.C,R5*%
X128500000Y-84412500D03*
X128500000Y-82587500D03*
%TD*%
D14*
%TO.C,C9*%
X140444000Y-98601000D03*
X140444000Y-101551000D03*
%TD*%
D15*
%TO.C,R2*%
X157000000Y-129587500D03*
X157000000Y-131412500D03*
%TD*%
D16*
%TO.C,C7*%
X144000000Y-107475000D03*
X144000000Y-104525000D03*
%TD*%
D14*
%TO.C,C10*%
X144018000Y-98601000D03*
X144018000Y-101551000D03*
%TD*%
D17*
%TO.C,C1*%
X149500000Y-103050000D03*
X149500000Y-104950000D03*
%TD*%
D18*
%TO.C,U2*%
X148150000Y-126650000D03*
D19*
X145450000Y-124745000D03*
X145450000Y-126015000D03*
X145450000Y-127285000D03*
X145450000Y-128555000D03*
X150850000Y-128555000D03*
X150850000Y-127285000D03*
X150850000Y-126015000D03*
X150850000Y-124745000D03*
%TD*%
D20*
%TO.C,J2*%
X135500000Y-84500000D03*
X134500000Y-84500000D03*
X133500000Y-84500000D03*
X132500000Y-84500000D03*
D21*
X136800000Y-80625000D03*
X131200000Y-80625000D03*
%TD*%
D22*
%TO.C,C6*%
X143000000Y-125950000D03*
X143000000Y-124050000D03*
%TD*%
D23*
%TO.C,U3*%
X144424000Y-87362000D03*
X144424000Y-89662000D03*
D24*
X150724000Y-89662000D03*
D23*
X144424000Y-91962000D03*
%TD*%
D25*
%TO.C,C4*%
X153050000Y-127500000D03*
X154950000Y-127500000D03*
%TD*%
D26*
%TO.C,R1*%
X133587500Y-89500000D03*
X135412500Y-89500000D03*
%TD*%
D13*
%TO.C,C12*%
X141732000Y-89359000D03*
X141732000Y-86409000D03*
%TD*%
D27*
%TO.C,D1*%
X135150000Y-119000000D03*
X130850000Y-119000000D03*
%TD*%
D22*
%TO.C,C3*%
X153150000Y-125450000D03*
X153150000Y-123550000D03*
%TD*%
D25*
%TO.C,C2*%
X133550000Y-87000000D03*
X135450000Y-87000000D03*
%TD*%
D16*
%TO.C,C8*%
X140500000Y-107475000D03*
X140500000Y-104525000D03*
%TD*%
M02*
